<svg width="54" height="54" viewBox="0 0 54 54" fill="none" xmlns="http://www.w3.org/2000/svg">
<path d="M25.4412 9.0262C25.4412 3.86764 25.4412 1.28836 23.7265 0.321135C22.0118 -0.646094 19.7255 0.643546 15.1528 3.22282L11.8473 5.08741C7.27464 7.66668 4.98834 8.95632 4.98834 10.8908C4.98834 12.8252 7.27464 14.1149 11.8473 16.6942L15.1528 18.5587C19.7255 21.138 22.0118 22.4277 23.7265 21.4604C25.4412 20.4932 25.4412 17.9139 25.4412 12.7554V9.0262Z" fill="#1ABC9C"/>
<path d="M10.2884 19.332C5.71577 16.7528 3.42946 15.4631 1.71473 16.4303C0 17.3976 0 19.9769 0 25.1354V28.8646C0 34.0231 0 36.6024 1.71473 37.5696C3.42946 38.5369 5.71577 37.2472 10.2884 34.668L13.594 32.8034C18.1666 30.2241 20.4529 28.9345 20.4529 27C20.4529 25.0655 18.1666 23.7759 13.594 21.1966L10.2884 19.332Z" fill="#1ABC9C"/>
<path d="M11.8473 37.3058C7.27464 39.8851 4.98833 41.1748 4.98833 43.1092C4.98833 45.0437 7.27464 46.3333 11.8473 48.9126L15.1529 50.7772C19.7255 53.3565 22.0118 54.6461 23.7265 53.6789C25.4412 52.7116 25.4412 50.1324 25.4412 44.9738V41.2446C25.4412 36.0861 25.4412 33.5068 23.7265 32.5396C22.0118 31.5723 19.7255 32.862 15.1529 35.4412L11.8473 37.3058Z" fill="#1ABC9C"/>
<path d="M28.5589 44.9737C28.5589 50.1323 28.5589 52.7115 30.2737 53.6788C31.9884 54.646 34.2747 53.3564 38.8473 50.7771L42.1528 48.9126C46.7254 46.3333 49.0117 45.0436 49.0117 43.1092C49.0117 41.1747 46.7254 39.8851 42.1528 37.3058L38.8473 35.4413C34.2747 32.862 31.9884 31.5724 30.2737 32.5396C28.5589 33.5068 28.5589 36.0861 28.5589 41.2447V44.9737Z" fill="#1ABC9C"/>
<path d="M43.7116 34.6679C48.2842 37.2472 50.5705 38.5368 52.2853 37.5696C54 36.6024 54 34.0231 54 28.8645V25.1355C54 19.9769 54 17.3976 52.2853 16.4304C50.5705 15.4632 48.2842 16.7528 43.7116 19.3321L40.4061 21.1966C35.8335 23.7759 33.5472 25.0655 33.5472 27C33.5472 28.9345 35.8335 30.2241 40.4061 32.8034L43.7116 34.6679Z" fill="#1ABC9C"/>
<path d="M42.1528 16.6942C46.7254 14.1149 49.0117 12.8253 49.0117 10.8908C49.0117 8.95636 46.7254 7.66672 42.1528 5.08744L38.8473 3.22291C34.2747 0.643636 31.9884 -0.646002 30.2737 0.321226C28.5589 1.28845 28.5589 3.86773 28.5589 9.02628V12.7553C28.5589 17.9139 28.5589 20.4932 30.2737 21.4604C31.9884 22.4276 34.2747 21.138 38.8473 18.5587L42.1528 16.6942Z" fill="#1ABC9C"/>
<ellipse cx="26.9998" cy="27.0001" rx="3.888" ry="3.888" fill="#1ABC9C"/>
</svg>
